<svg xmlns="http://www.w3.org/2000/svg" width="134" height="108" viewBox="0 0 134 108">
    <defs>
        <radialGradient id="rdt7o5pk6a" cx="98.305%" cy="99.794%" r="264.637%" fx="98.305%" fy="99.794%" gradientTransform="matrix(.35975 0 0 1 .63 0)">
            <stop offset="1%" stop-color="#FFF"/>
            <stop offset="4%" stop-color="#C6FFFF"/>
            <stop offset="9%" stop-color="#80FFFF"/>
            <stop offset="13%" stop-color="#49FFFF"/>
            <stop offset="17%" stop-color="#21FFFF"/>
            <stop offset="20%" stop-color="#09FFFF"/>
            <stop offset="22%" stop-color="#0FF"/>
            <stop offset="28%" stop-color="#01F6FF" stop-opacity=".96"/>
            <stop offset="39%" stop-color="#04DEFF" stop-opacity=".87"/>
            <stop offset="53%" stop-color="#08B6FF" stop-opacity=".71"/>
            <stop offset="69%" stop-color="#0E7FFF" stop-opacity=".5"/>
            <stop offset="87%" stop-color="#1639FF" stop-opacity=".22"/>
            <stop offset="100%" stop-color="#1C00FF" stop-opacity="0"/>
        </radialGradient>
    </defs>
    <g fill="none" fill-rule="evenodd">
        <g>
            <g>
                <g>
                    <path fill="#FFF" d="M73.584 70.598c3.709 0 6.732 2.561 6.853 6.484h-4.192c-.201-1.601-1.129-2.682-2.862-2.682-1.613 0-2.62 1.08-2.62 2.361 0 1.881 1.935 2.442 4.152 3.122 3.144.96 6.046 2.842 6.046 6.964 0 4.283-3.144 7.084-7.498 7.084-4.03 0-7.9-2.722-7.9-7.844h4.192c.201 2.682 1.572 4.042 3.79 4.042 1.934 0 3.224-1.24 3.224-3.041 0-1.521-1.169-2.522-3.789-3.363-5.482-1.72-6.41-4.082-6.41-6.604 0-3.922 3.346-6.523 7.014-6.523zm32.53 0c3.266 0 6.007 1.2 7.74 3.722h.08v-3.122h4.193v22.173h-4.193V89.93h-.08c-1.572 2.641-4.394 4.002-7.578 4.002-6.53 0-11.851-4.882-11.851-11.286 0-7.085 5.119-12.047 11.69-12.047zm-66.148 0c6.167 0 11.972 4.803 11.892 11.847-.082 5.961-5.144 11.558-12.353 11.486-6.5-.066-11.9-5.411-11.75-11.864.156-6.612 5.46-11.469 12.21-11.469zm20.316-6.845v7.445h3.668V75h-3.668v18.912h-.3c-2.15 0-3.892-1.73-3.892-3.863V75h-1.74v-3.802h1.74v-7.445h4.192zm29.306 0v7.445h3.668V75h-3.668v18.912h-.301c-2.15 0-3.891-1.73-3.891-3.863V75h-1.74v-3.802h1.74v-7.445h4.192zM4.213 61.667c2.292 0 4.15 1.845 4.15 4.121v7.772h.08c1.331-1.962 3.467-2.962 6.249-2.962 5.32 0 9.311 3.362 9.311 9.445v13.328h-4.192V81.324c0-4.763-1.854-6.924-5.563-6.924-3.668 0-5.885 2.642-5.885 6.964v12.007H4.171V61.667h.042zm128.466 8.93v4.283c-3.629.12-5.482 2.322-5.482 6.044v8.841c0 1.992-1.626 3.606-3.632 3.606h-.56V71.198h3.91V73.2h.08c1.007-1.48 2.74-2.441 5.684-2.601zM39.764 74.4c-4.192 0-7.82 3.522-7.82 7.845 0 4.202 3.508 7.884 7.74 7.884 4.393 0 7.98-3.442 7.98-7.924 0-4.323-3.506-7.805-7.9-7.805zm66.472 0c-4.333 0-7.846 3.804-7.608 8.363.215 4.108 3.612 7.442 7.755 7.365 4.283-.08 7.632-3.648 7.632-7.803 0-4.323-3.144-7.925-7.78-7.925z" transform="translate(-616 -267) translate(520 267) translate(96)"/>
                    <path fill="#FFF" fill-rule="nonzero" d="M65.447 44.974l.145.021c1.11.145 2.198.347 3.033.722.773.34 1.225.768 1.638 1.531.63 1.155.67 2.783.102 4.011-.425.915-1.357 1.682-2.207 2.089-.867.404-1.798.654-2.752.74-1.787.171-3.587-.148-5.203-.924-.93-.45-2.064-1.226-2.637-2.227-.435-.746-.394-1.675.104-2.381.817-1.108 2.565-1.354 3.883-1.308 1.004.04 2.813.348 3.766.685.265.095 1.239.47 1.409.645.13.113.185.289.145.456-.218.662-1.837 1.01-2.304 1.08-1.253.19-1.903-.28-3.326-.838-.379-.156-.776-.265-1.183-.323-.645-.06-1.426.118-1.55.82-.06.36.365.698.691.84.672.298 1.4.453 2.135.453 2.219.036 4.714-.328 6.528-1.604.249-.176.493-.433.496-.759.007-.656-1.151-1.058-1.151-1.058-1.223-.506-3.489-.752-4.652-.847-1.22-.105-3.142-.263-3.604-.33-.482-.052-.953-.168-1.403-.345-.45-.205-.79-.59-.938-1.06-.212-.827.06-1.843.522-2.504 1.214-1.732 4.054-2.388 6.176-2.65 2.056-.254 5.379-.25 7.395.814.31.165.47.32.405.65-.132.622-.601 1.022-1.171 1.198-.598.187-1.833.262-2.377.296-2.432.135-5.378.063-7.69.691-.181.052-.495.136-.597.248-.362.391.673.502.896.549.047.011.096.02.145.024l5.121.6.01-.005zM50.974 34.206s.395-.59.727-1.035c.75-.96 1.594-1.846 2.519-2.644.251-.213.55-.454.55-.454s-.466.047-.728.1c-.623.121-1.539.722-1.997 1.116-.754.64-1.583 1.684-1.208 2.61.054.132.138.307.138.307h-.001zm4.195 1.114c1.175-.082 2.317-.421 3.343-.995 1.018-.565 2.52-1.67 2.364-2.97-.046-.395-.304-.734-.675-.885-.453-.196-.69-.164-1.272 0-.355.093-.695.236-1.01.425-1.17.675-2.829 2.118-3.728 3.272-.208.27-.419.577-.582.783-.104.129-.184.247-.174.277.035.132 1.264.119 1.73.087l.004.006zm-3.035 2.215c-.124.129-.253.44-.388.666-.077.128-.176.242-.291.337-.311.228-.573.238-.872-.024-.42-.387-.665-.926-.68-1.494-.01-.243.033-.51-.014-.722-.075-.345-.424-.7-.61-1.029-.238-.467-.382-.975-.425-1.496-.075-1.363.647-2.619 1.588-3.609 1-1.031 2.202-1.848 3.532-2.4 1.273-.532 3.14-.895 4.537-.414.54.193 1.025.517 1.408.942.053.082.117.156.192.218.114.042.234.068.355.08.49.114.95.33 1.35.635.526.45.814.882.948 1.508.269 1.26-.462 2.643-1.294 3.483-1.426 1.443-2.833 2.466-4.651 3.175-.8.31-2.048.6-2.955.52-.282-.025-.573-.099-.848-.116-.242-.039-.48-.1-.71-.183-.069-.052-.156-.098-.172-.08v.003zm1.625 2.79c.073.015.145.035.215.062.638.241.901.829 1.06 1.474.365 1.496.52 4.81.581 6.108.045.972.068 1.932.11 2.893.034.814.1 1.898-.07 2.662-.069.307-.252.578-.512.757-.304.192-.995.208-1.374.13-.936-.193-1.24-.79-1.374-1.707-.316-2.194-.164-6.495.024-8.312.062-.599.29-2.521.604-3.32.108-.272.338-.82.737-.741l-.001-.006zm-28.461 3.647s-1.393.098-2.35.204c-1.22.131-3.513.524-4.834.993-.397.144-1.202.474-1.273.88-.071.406.189.748.481 1.088.169.197 1.124 1.109 1.392 1.331 1.123.93 3.399 2.366 5.075 3.063.581.236 1.53.577 1.53.577s-.072-2.693-.059-5.34c0-1.4.038-2.786.038-2.786v-.01zm25.533 1.073c.079.721-.107 2.092-.145 2.271-.101.508-.24 1.007-.416 1.494-.23.525-.488 1.038-.772 1.537-.604.982-1.34 1.878-2.187 2.663-2.397 2.057-6.105 3.229-9.292 3.608-2.308.276-4.646.213-6.936-.186-.788-.144-1.96-.41-1.96-.41s0 .466-.033.792c-.041.23-.107.454-.196.67-.158.327-.473.551-.836.593-.48.088-.988.119-1.432-.07-.726-.304-.988-.979-1.115-1.758-.103-.625-.21-1.708-.21-1.708s-.544-.257-.997-.48c-1.36-.672-2.657-1.461-3.877-2.359-.32-.238-1.7-1.384-2.003-1.668-.86-.811-1.622-1.612-2.207-2.638-.453-.803-.581-1.514-.24-2.364.477-1.184 2.188-2.076 3.358-2.584.86-.378 3.53-1.244 4.641-1.404.524-.075 1.338-.22 1.387-.251.018-.014.035-.03.05-.047.026-.036.068-1.208.06-1.636-.01-.429.315-3.193.42-3.779.055-.316.29-1.535.541-1.856.162-.215.448-.199.68-.056 1.273.785 1.66 3.511 1.754 4.898.056.846.086 2.116.086 2.116s1.453-.043 2.357-.017c.92.041 1.835.141 2.742.3 1.163.183 3.42.674 4.717 1.327 1.068.536 2.067 1.443 2.39 2.401.302.88.257 1.487-.201 2.28-.515.895-1.49 1.56-2.479 1.616-.29.017-1.4-.129-1.744-.39-.123-.109-.137-.295-.03-.42.277-.174.564-.334.859-.478.144-.077.278-.171.4-.28.254-.222.482-.466.456-.753-.035-.371-.436-.6-.809-.748-1.77-.698-5.305-1.279-7.014-1.378-.668-.04-1.62-.072-1.62-.072l.202 9.365s.785.144 1.406.25c.355.053 1.862.187 2.263.197 3.053.081 6.45-.19 9.248-1.502 1.228-.577 2.355-1.287 3.208-2.254 1.159-1.345 1.72-3.099 1.558-4.861-.171-2-1.589-4.37-2.72-5.815-2.987-3.816-8.11-6.955-12.615-8.794-4.6-1.876-9.149-2.959-14.032-3.14-1.258-.045-4.003.018-5.39.4-.197.054-.398.12-.58.162-.154.039-.301.1-.437.18-.024.021-.047.043-.068.067.054.03.11.057.167.08.145.064.766.103 1.086.161.29.055.581.204.702.413.12.21.126.353-.008.518-.314.38-1.497.316-2.019.234-.521-.083-1.215-.25-1.338-.722-.146-.551.119-1.092.404-1.588.573-1 1.392-1.52 2.594-1.845 1.788-.474 3.621-.759 5.469-.852 3.645-.144 7.095.495 10.627 1.56 2.259.697 4.466 1.55 6.605 2.552 1.651.81 3.257 1.709 4.811 2.69.388.254 2.659 1.91 3.012 2.201.736.598 1.698 1.456 2.394 2.143 1.35 1.327 3.027 3.36 3.842 4.975.196.387.347.767.6 1.214.204.434.378.881.52 1.338.063.263.153.648.165.663.019.141.198.93.177 1.234zm45.826-2.072c-1.708.392-6.197.608-6.197.608l-.565 1.76s2.243-.19 3.875-.02c0 0 .53-.061.59.595.01.424-.008.849-.052 1.27 0 0-.033.399-.602.5-.615.102-4.834.264-4.834.264l-.684 2.295s-.254.53.316.38c.529-.145 4.95-.965 5.523-.847.617.152 1.3.969 1.102 1.714-.235.923-4.651 3.716-7.336 3.523 0 0-1.411.09-2.605-1.803-1.112-1.804.422-5.217.422-5.217s-.704-1.595-.194-2.135c0 0 .303-.273 1.187-.335l1.084-2.227s-1.233.084-1.965-.817c-.683-.853-.74-1.245-.217-1.48.56-.276 5.69-1.206 9.222-1.087 0 0 1.226-.12 2.29 1.993 0 0 .516.856-.36 1.06v.006zm-13.28 8.543c-.452 1.057-1.647 2.185-3.132 1.484-1.486-.702-3.8-5.447-3.8-5.447s-.887-1.77-1.058-1.723c0 0-.19-.347-.308 1.587s.023 5.68-.75 6.27c-.727.592-1.62.356-2.08-.335-.418-.683-.592-2.31-.364-5.148.268-2.852.935-5.886 1.788-6.83s1.533-.258 1.8-.01c0 0 1.14 1.025 3.016 4.033l.331.557s1.707 2.842 1.89 2.836c0 0 .138.13.263.036.179-.05.106-.963.106-.963s-.353-3.097-1.91-8.34c-.137-.408-.163-.845-.076-1.266.157-.62.784-.33.784-.33s2.411 1.204 3.581 5.104c1.17 3.9.383 7.421-.077 8.485h-.004zm25.964-2.335c-1.099 1.902-4.2 5.886-8.319 4.945-1.36 3.276-2.503 6.591-3.157 11.546 0 0-.145.964-.95.63-.799-.28-2.116-1.599-2.383-3.424-.29-2.398.79-6.452 2.987-11.1-.641-1.034-1.079-2.512-.705-4.618 0 0 .552-3.908 4.506-7.43 0 0 .474-.407.749-.281.302.126.161 1.397-.079 2.02-.24.624-2.007 3.64-2.007 3.64s-1.098 2.044-.79 3.655c2.075-3.164 6.787-9.547 9.707-7.534.982.697 1.434 2.214 1.435 3.848 0 1.434-.349 2.96-.993 4.103h-.001zm-.853-5.017s-.163-1.257-1.402.129c-1.065 1.169-2.987 3.36-4.533 6.337 1.622-.18 3.189-1.055 3.661-1.501.77-.678 2.563-2.519 2.274-4.965zm23.548-.289h-7.55c-.15-2.546-.467-5.08-.948-7.587-.05-.264-.282-.456-.552-.456h-1.745c-.152.001-.297.07-.394.187-.097.118-.136.272-.107.42.491 2.455.813 4.94.962 7.438h-7.268c-.162 0-.318.063-.433.177-.115.114-.18.27-.18.43v1.558c0 .162.064.317.179.431.115.115.271.18.434.18h7.368c0 .385.01.73.01 1.053.012 2.068-.093 4.135-.316 6.192-.015.159.038.317.145.436.107.12.26.19.42.193h1.615c.315 0 .578-.236.608-.547.219-2.082.324-4.174.315-6.267 0-.323 0-.668-.009-1.053h7.447c.163 0 .32-.065.434-.18.115-.114.18-.27.18-.43v-1.558c0-.162-.065-.317-.18-.431-.116-.115-.272-.179-.435-.178v-.008z" transform="translate(-616 -267) translate(520 267) translate(96)"/>
                    <path fill="url(#rdt7o5pk6a)" fill-rule="nonzero" d="M122.513 32.176C115.257 14.463 98.733 2.183 79.572.262 60.41-1.66 41.748 7.093 31.072 23.009c-.108.156-.135.354-.072.532.061.18.203.32.384.381l1.353.453c.079.026.16.039.243.04.25 0 .485-.124.625-.331C42.767 10.674 58.028 2.645 74.349 2.65c19.792.004 37.661 11.766 45.372 29.865.11.262.368.433.654.433h1.616c.188 0 .362-.093.467-.248.104-.154.125-.35.055-.522v-.002z" transform="translate(-616 -267) translate(520 267) translate(96)"/>
                </g>
            </g>
        </g>
    </g>
</svg>
