<svg xmlns="http://www.w3.org/2000/svg" width="47" height="24" viewBox="0 0 47 24">
    <path fill="#FFF" fill-rule="evenodd" d="M12.57 18.306c.605.606.722 1.593.181 2.256a1.63 1.63 0 0 1-2.422.125l-7.516-7.53a1.638 1.638 0 0 1 0-2.314l7.516-7.53a1.628 1.628 0 0 1 2.397.095c.566.663.455 1.675-.16 2.291l-5.91 5.923a.536.536 0 0 0 0 .757l5.915 5.927zm5.042-6.685a.538.538 0 0 0 0 .758l3.77 3.777a1.638 1.638 0 0 1-.125 2.427c-.662.542-1.647.426-2.251-.179l-5.237-5.247a1.638 1.638 0 0 1 0-2.313l5.303-5.314a1.629 1.629 0 0 1 2.23-.076c.72.633.685 1.784.007 2.463l-3.697 3.704zm15.839-5.3v11.282h-2.044V8.702l-2.705 1.686V8.122l2.804-1.801h1.945zm6.868 11.497c-2.722 0-4.347-2.149-4.347-5.845.006-3.685 1.636-5.806 4.347-5.806 2.71 0 4.346 2.126 4.346 5.806 0 3.702-1.625 5.85-4.346 5.845zm0-2.01c1.41 0 2.286-1.312 2.286-3.835-.006-2.502-.882-3.82-2.286-3.82-1.4 0-2.276 1.318-2.281 3.82-.006 2.523.876 3.836 2.28 3.836z"/>
</svg>
