<svg xmlns="http://www.w3.org/2000/svg" width="24" height="24" viewBox="0 0 24 24">
    <path fill="#FFF" fill-rule="nonzero" d="M4.981 20.654h5.381c.595 0 1.077.482 1.077 1.077v.158c0 .595-.482 1.077-1.077 1.077H2.455a1.08 1.08 0 0 1-.716-.066 1.08 1.08 0 0 1-.639-.639 1.08 1.08 0 0 1-.066-.716v-7.907c0-.595.482-1.077 1.077-1.077h.158c.595 0 1.077.482 1.077 1.077v5.38l5.44-5.439c.42-.42 1.103-.42 1.523 0l.112.112c.42.42.42 1.102 0 1.523l-5.44 5.44zM19.02 3.346h-5.381A1.077 1.077 0 0 1 12.56 2.27v-.158c0-.595.482-1.077 1.077-1.077h7.907c.238-.06.491-.038.716.066.295.11.53.344.639.639.104.225.126.478.066.716v7.907c0 .595-.482 1.077-1.077 1.077h-.158a1.077 1.077 0 0 1-1.077-1.077v-5.38l-5.44 5.439c-.42.42-1.103.42-1.523 0l-.112-.112a1.077 1.077 0 0 1 0-1.523l5.44-5.44z"/>
</svg>
